<svg xmlns="http://www.w3.org/2000/svg" width="32" height="32"><path fill="#1c1d20" d="M6.667 0h18.667a6.667 6.667 0 0 1 6.667 6.667v18.667a6.667 6.667 0 0 1-6.667 6.667H6.667A6.667 6.667 0 0 1 0 25.334V6.667A6.667 6.667 0 0 1 6.667 0z"/><path fill="#fafafa" d="m24.48 15.368.083-1.748-1.527.951-.474-.786 1.622-.797-1.622-.797.474-.797 1.527.951-.083-1.748h.935l-.083 1.748 1.528-.951.474.797-1.622.797 1.622.797-.474.786-1.528-.951.083 1.748h-.935zM21.034 12.535v1.004h-3.841v-1.004h3.841zm-2.794 6.412v-7.158c0-.398.093-.728.28-.992.191-.268.438-.467.743-.597a2.46 2.46 0 0 1 .992-.201c.272 0 .503.021.694.063s.331.078.42.109l-.316 1.009a3.68 3.68 0 0 0-.237-.063 1.51 1.51 0 0 0-.353-.034c-.321 0-.552.076-.694.229-.142.149-.213.367-.213.654v6.98h-1.315z"/><path fill="#fafafa" d="M17.455 12.535v1.004h-3.841v-1.004h3.841zm-2.794 6.412v-7.158c0-.398.093-.728.28-.992.191-.268.438-.467.743-.597a2.46 2.46 0 0 1 .992-.201c.272 0 .503.021.694.063s.331.078.42.109l-.317 1.009a3.68 3.68 0 0 0-.237-.063 1.51 1.51 0 0 0-.353-.034c-.321 0-.552.076-.694.229-.142.149-.213.367-.213.654v6.98h-1.315zM10.791 18.947c-.644 0-1.202-.134-1.674-.403s-.835-.648-1.09-1.136c-.252-.492-.377-1.066-.377-1.721 0-.651.124-1.225.371-1.721a2.827 2.827 0 0 1 1.055-1.159c.456-.28.99-.42 1.603-.42.373 0 .735.059 1.085.176s.664.303.943.557c.279.254.499.583.66.988.165.405.248.894.248 1.466v.443h-5.24v-.926h4.58l-.595.307c0-.39-.063-.735-.189-1.034s-.314-.532-.566-.699c-.248-.17-.556-.256-.925-.256s-.686.085-.949.256c-.259.17-.458.396-.595.676s-.206.587-.206.92v.631c0 .436.079.805.236 1.108s.375.534.654.693c.283.159.611.239.984.239.244 0 .464-.034.66-.102.2-.068.373-.17.519-.307s.255-.305.33-.506l1.214.222c-.098.341-.271.64-.519.898s-.56.458-.937.602c-.373.14-.8.21-1.279.21zM5.686 12.483h1.21v6.862c.004.43-.071.793-.224 1.089s-.377.519-.672.668c-.295.154-.657.23-1.087.23h-.246v-1.077h.196c.291 0 .5-.079.627-.236s.192-.384.196-.68v-6.856zm.599-.991c-.213 0-.394-.073-.543-.219s-.224-.321-.224-.524c0-.207.075-.384.224-.53s.33-.219.543-.219c.209 0 .388.073.538.219.153.146.23.323.23.53a.699.699 0 0 1-.23.524.742.742 0 0 1-.538.219z"/></svg>